<?xml version="1.0" encoding="UTF-8" standalone="no"?>
<svg
   version="1.2"
   width="336.62mm"
   height="435.27mm"
   viewBox="0 0 33662 43527"
   preserveAspectRatio="xMidYMid"
   fill-rule="evenodd"
   stroke-width="28.222"
   stroke-linejoin="round"
   xml:space="preserve"
   id="svg1193"
   sodipodi:docname="4.svg"
   inkscape:version="1.2.2 (732a01da63, 2022-12-09, custom)"
   xmlns:inkscape="http://www.inkscape.org/namespaces/inkscape"
   xmlns:sodipodi="http://sodipodi.sourceforge.net/DTD/sodipodi-0.dtd"
   xmlns="http://www.w3.org/2000/svg"
   xmlns:svg="http://www.w3.org/2000/svg"
   xmlns:ooo="http://xml.openoffice.org/svg/export"><sodipodi:namedview
   id="namedview1195"
   pagecolor="#ffffff"
   bordercolor="#000000"
   borderopacity="0.25"
   inkscape:showpageshadow="2"
   inkscape:pageopacity="0.0"
   inkscape:pagecheckerboard="0"
   inkscape:deskcolor="#d1d1d1"
   inkscape:document-units="mm"
   showgrid="false"
   inkscape:zoom="0.5033083"
   inkscape:cx="627.8458"
   inkscape:cy="822.55747"
   inkscape:window-width="1920"
   inkscape:window-height="1031"
   inkscape:window-x="0"
   inkscape:window-y="25"
   inkscape:window-maximized="1"
   inkscape:current-layer="svg1193" />
 <defs
   class="ClipPathGroup"
   id="defs1121">
  <clipPath
   id="presentation_clip_path"
   clipPathUnits="userSpaceOnUse">
   <rect
   x="0"
   y="0"
   width="33662"
   height="43527"
   id="rect1115" />
  </clipPath>
  <clipPath
   id="presentation_clip_path_shrink"
   clipPathUnits="userSpaceOnUse">
   <rect
   x="33"
   y="43"
   width="33595"
   height="43440"
   id="rect1118" />
  </clipPath>
 </defs>
 <defs
   class="TextShapeIndex"
   id="defs1125">
  <g
   ooo:slide="id1"
   ooo:id-list="id3 id4 id5"
   id="g1123" />
 </defs>
 <defs
   class="EmbeddedBulletChars"
   id="defs1157">
  <g
   id="bullet-char-template-57356"
   transform="scale(0.00048828125,-0.00048828125)">
   <path
   d="M 580,1141 L 1163,571 580,0 -4,571 580,1141 Z"
   id="path1127" />
  </g>
  <g
   id="bullet-char-template-57354"
   transform="scale(0.00048828125,-0.00048828125)">
   <path
   d="M 8,1128 L 1137,1128 1137,0 8,0 8,1128 Z"
   id="path1130" />
  </g>
  <g
   id="bullet-char-template-10146"
   transform="scale(0.00048828125,-0.00048828125)">
   <path
   d="M 174,0 L 602,739 174,1481 1456,739 174,0 Z M 1358,739 L 309,1346 659,739 1358,739 Z"
   id="path1133" />
  </g>
  <g
   id="bullet-char-template-10132"
   transform="scale(0.00048828125,-0.00048828125)">
   <path
   d="M 2015,739 L 1276,0 717,0 1260,543 174,543 174,936 1260,936 717,1481 1274,1481 2015,739 Z"
   id="path1136" />
  </g>
  <g
   id="bullet-char-template-10007"
   transform="scale(0.00048828125,-0.00048828125)">
   <path
   d="M 0,-2 C -7,14 -16,27 -25,37 L 356,567 C 262,823 215,952 215,954 215,979 228,992 255,992 264,992 276,990 289,987 310,991 331,999 354,1012 L 381,999 492,748 772,1049 836,1024 860,1049 C 881,1039 901,1025 922,1006 886,937 835,863 770,784 769,783 710,716 594,584 L 774,223 C 774,196 753,168 711,139 L 727,119 C 717,90 699,76 672,76 641,76 570,178 457,381 L 164,-76 C 142,-110 111,-127 72,-127 30,-127 9,-110 8,-76 1,-67 -2,-52 -2,-32 -2,-23 -1,-13 0,-2 Z"
   id="path1139" />
  </g>
  <g
   id="bullet-char-template-10004"
   transform="scale(0.00048828125,-0.00048828125)">
   <path
   d="M 285,-33 C 182,-33 111,30 74,156 52,228 41,333 41,471 41,549 55,616 82,672 116,743 169,778 240,778 293,778 328,747 346,684 L 369,508 C 377,444 397,411 428,410 L 1163,1116 C 1174,1127 1196,1133 1229,1133 1271,1133 1292,1118 1292,1087 L 1292,965 C 1292,929 1282,901 1262,881 L 442,47 C 390,-6 338,-33 285,-33 Z"
   id="path1142" />
  </g>
  <g
   id="bullet-char-template-9679"
   transform="scale(0.00048828125,-0.00048828125)">
   <path
   d="M 813,0 C 632,0 489,54 383,161 276,268 223,411 223,592 223,773 276,916 383,1023 489,1130 632,1184 813,1184 992,1184 1136,1130 1245,1023 1353,916 1407,772 1407,592 1407,412 1353,268 1245,161 1136,54 992,0 813,0 Z"
   id="path1145" />
  </g>
  <g
   id="bullet-char-template-8226"
   transform="scale(0.00048828125,-0.00048828125)">
   <path
   d="M 346,457 C 273,457 209,483 155,535 101,586 74,649 74,723 74,796 101,859 155,911 209,963 273,989 346,989 419,989 480,963 531,910 582,859 608,796 608,723 608,648 583,586 532,535 482,483 420,457 346,457 Z"
   id="path1148" />
  </g>
  <g
   id="bullet-char-template-8211"
   transform="scale(0.00048828125,-0.00048828125)">
   <path
   d="M -4,459 L 1135,459 1135,606 -4,606 -4,459 Z"
   id="path1151" />
  </g>
  <g
   id="bullet-char-template-61548"
   transform="scale(0.00048828125,-0.00048828125)">
   <path
   d="M 173,740 C 173,903 231,1043 346,1159 462,1274 601,1332 765,1332 928,1332 1067,1274 1183,1159 1299,1043 1357,903 1357,740 1357,577 1299,437 1183,322 1067,206 928,148 765,148 601,148 462,206 346,322 231,437 173,577 173,740 Z"
   id="path1154" />
  </g>
 </defs>
 
 <path
   fill="#000000"
   stroke="none"
   d="m 32115,15697 c -387,-856 -729,-1739 -931,-2660 -154,-756 4,-1606 582,-2150 335,-450 912,-518 1430,-548 C 32409,9206 31175,8522 30022,7822 28927,7214 27782,6690 26589,6306 25558,5984 24583,5448 23501,5304 c 98,97 189,207 316,268 749,375 1507,809 2022,1488 504,594 1063,1171 1307,1930 612,1283 295,2769 -225,4025 -809,1720 -2029,3369 -3818,4149 -709,282 -1483,634 -2258,394 -1352,-324 -2247,-1773 -2066,-3126 132,-1056 741,-1964 1293,-2845 841,-1117 1800,-2213 2143,-3606 404,-1266 -97,-2704 -1080,-3559 -733,-651 -1722,-850 -2673,-881 -1333,-125 -2628,485 -3596,1369 580,-1412 1036,-2873 1540,-4313 h -228 c -756,2058 -1897,3950 -3206,5701 -275,335 -660,612 -786,1044 7,375 285,688 289,1061 -190,241 -544,270 -776,467 -140,287 -63,664 -326,886 -281,292 -754,682 -420,1114 388,432 959,679 1505,852 -124,-380 -468,-808 -218,-1205 373,-293 976,-280 1194,-756 234,-399 254,-897 542,-1265 408,-149 899,-118 1228,-445 463,-364 557,-972 846,-1450 399,-456 985,-735 1576,-835 759,-130 1628,277 1893,1026 239,596 -20,1237 -288,1775 -481,821 -1192,1469 -1903,2086 -1204,1135 -1992,2613 -2823,4022 -406,687 -524,1563 -1187,2078 -711,624 -1744,787 -2654,605 -983,-236 -1982,-595 -2728,-1304 -456,-426 -959,-826 -1272,-1377 -312,-555 -671,-1111 -756,-1755 -251,-1459 211,-2950 956,-4197 468,-857 1134,-1606 1959,-2131 390,-308 894,-470 1209,-864 -809,45 -1589,298 -2359,538 -1542,454 -2973,1199 -4432,1857 -986,535 -1883,1220 -2777,1893 406,95 889,75 1198,403 494,510 576,1277 513,1953 -68,638 -172,1297 -506,1857 -838,1427 -1280,3122 -1072,4777 54,531 231,1042 297,1572 753,-781 1791,-1359 2892,-1382 1374,168 2700,796 3671,1790 708,640 1112,1540 1850,2152 83,-614 339,-1236 856,-1607 598,-402 1344,-719 2072,-515 860,271 1652,864 2021,1703 369,819 835,1610 1003,2504 203,1049 483,2089 545,3160 108,1207 317,2403 358,3615 55,631 128,1275 -35,1896 -164,612 -261,1301 -750,1754 -324,367 -970,551 -1357,185 -321,-237 -548,-618 -965,-700 77,479 550,732 776,1135 464,813 968,1604 1417,2427 485,913 828,1892 1250,2834 201,442 304,920 377,1397 46,-2 137,-6 183,-7 299,-952 717,-1860 1146,-2759 446,-1107 1021,-2153 1652,-3164 385,-724 967,-1355 1162,-2167 -460,371 -971,767 -1594,760 -560,54 -1178,-253 -1325,-827 -444,-1369 -83,-2814 -16,-4211 281,-1774 465,-3562 836,-5320 69,-409 313,-765 365,-1176 4,-35 7,-69 12,-104 332,-360 607,-898 943,-1246 553,-654 1332,-1147 2194,-1234 472,-64 944,144 1268,483 277,317 361,741 440,1142 881,-1140 1738,-2383 3052,-3063 1096,-600 2426,-810 3624,-411 374,170 745,380 1024,688 295,327 385,771 512,1178 55,-9 163,-24 217,-33 276,-1107 162,-2256 136,-3382 -113,-809 -322,-1608 -591,-2378 z"
   id="path1166"
   style="display:inline;fill:#800080" /><path
   fill="rgb(255,0,0)"
   stroke="none"
   d="M 808,19462 C 539,18092 768,16682 1256,15389 1540,14592 2150,13936 2288,13084 2465,12231 2513,11283 2060,10504 1878,10176 1529,10014 1196,9885 1195,9858 1192,9805 1191,9779 1964,9378 2889,9093 3739,9413 4246,9587 4469,10123 4583,10603 4696,11640 4263,12622 3878,13558 3008,15367 1688,16961 1136,18915 1055,19109 1020,19363 808,19462 Z M 6460,19839 C 5378,19309 4140,18689 2915,19087 2257,19252 1699,19645 1126,19990 1384,18640 2225,17429 3321,16618 3987,16167 4831,15718 5645,16051 6882,16489 7591,17714 7927,18915 8212,20033 8516,21145 8840,22251 8188,21326 7418,20453 6460,19839 Z M 12478,20804 C 11560,20515 10546,20823 9851,21461 9581,21732 9402,22074 9204,22397 8930,21644 8651,20811 8915,20014 9130,19146 9889,18467 10767,18323 11397,18129 12027,18451 12533,18803 13370,19428 13791,20417 14195,21344 14416,21821 14525,22338 14602,22855 14200,21922 13425,21171 12478,20804 Z M 16223,35970 C 16200,36440 15728,36876 15248,36767 14957,36669 14683,36510 14471,36285 15570,36261 16177,35140 16269,34166 16415,34762 16253,35371 16223,35970 Z M 18617,35699 C 19108,35941 19668,35780 20186,35751 19680,36356 18711,36930 17988,36344 17779,35900 17817,35364 17815,34877 18055,35175 18254,35536 18617,35699 Z M 24246,22383 C 23948,21774 23405,21171 22669,21198 21148,21213 19785,22514 19302,23899 19428,22899 19740,21929 20120,21000 20462,20343 20929,19751 21456,19232 21974,18730 22799,18508 23470,18819 24048,19124 24232,19802 24418,20377 24484,21041 24555,21764 24246,22383 Z M 30476,19264 C 29051,18953 27509,19399 26412,20343 25854,20740 25466,21323 24921,21734 25331,20500 25454,19198 25843,17960 26121,17200 26586,16466 27301,16052 27956,15712 28820,15779 29385,16267 30466,16975 31074,18153 31725,19228 31895,19488 31998,19782 32072,20084 31562,19774 31079,19375 30476,19264 Z M 32494,20113 C 32118,18627 31598,17159 30781,15855 30061,14433 29219,13017 28974,11419 28824,10420 29499,9163 30614,9184 31372,9255 32166,9532 32670,10128 31444,10383 30707,11740 30913,12926 31115,13858 31413,14771 31826,15631 31995,15981 32077,16360 32184,16732 32569,17810 32558,18983 32494,20113 Z"
   id="path1180"
   style="fill:#ff00ff" /><path
   fill="rgb(255,0,0)"
   stroke="none"
   d="M 12968,7819 C 12923,7589 12795,7338 12920,7110 13107,6855 13375,6672 13663,6545 13577,7020 13438,7584 12968,7819 Z"
   id="path1173"
   style="fill:#00ffff" />
</svg>
